HIERARCHY
ROOT Hips
{
	OFFSET 0.000000 0.000000 0.000000 
	CHANNELS 6 Xposition Yposition Zposition Yrotation Zrotation Xrotation 
	JOINT Lumbar
	{
		OFFSET 0.000000 0.000000 0.000000 
		CHANNELS 3 Zrotation Xrotation Yrotation
		JOINT Neck
		{
			OFFSET 0.000000 0.445665 0.000000 
			CHANNELS 3 Zrotation Xrotation Yrotation
			End Site
			{
				OFFSET 0.000000 0.227535 0.000000 
			}
		}
		JOINT RightShoulder
		{
			OFFSET 0.019635 0.377685 0.194865 
			CHANNELS 3 Zrotation Xrotation Yrotation
			JOINT RightElbow
			{
				OFFSET 0.000000 -0.243375 0.000000 
				CHANNELS 2 Zrotation Yrotation
				JOINT RightWrist
				{
					OFFSET 0.000000 -0.264825 0.000000 
					CHANNELS 2 Zrotation Xrotation
					End Site
					{
						OFFSET 0.006600 -0.176220 0.000990 
					}
				}
			}
		}
		JOINT LeftShoulder
		{
			OFFSET 0.019635 0.377685 -0.194865 
			CHANNELS 3 Zrotation Xrotation Yrotation
			JOINT LeftElbow
			{
				OFFSET 0.000000 -0.243375 0.000000 
				CHANNELS 2 Zrotation Yrotation
				JOINT LeftWrist
				{
					OFFSET 0.000000 -0.264825 0.000000 
					CHANNELS 2 Zrotation Xrotation
					End Site
					{
						OFFSET 0.006600 -0.176220 -0.000990 
					}
				}
			}
		}
	}
	JOINT RightHip
	{
		OFFSET 0.052140 -0.069960 0.075570 
		CHANNELS 3 Zrotation Xrotation Yrotation
		JOINT RightKnee
		{
			OFFSET 0.000000 -0.402270 0.000000 
			CHANNELS 1 Zrotation
			JOINT RightAnkle
			{
				OFFSET 0.000000 -0.404085 0.000000 
				CHANNELS 3 Zrotation Xrotation Yrotation
				End Site
				{
					OFFSET 0.204105 -0.089430 0.008415 
				}
			}
		}
	}
	JOINT LeftHip
	{
		OFFSET 0.052140 -0.069960 -0.075570 
		CHANNELS 3 Zrotation Xrotation Yrotation
		JOINT LeftKnee
		{
			OFFSET 0.000000 -0.402270 0.000000 
			CHANNELS 1 Zrotation
			JOINT LeftAnkle
			{
				OFFSET 0.000000 -0.404085 0.000000 
				CHANNELS 3 Zrotation Xrotation Yrotation
				End Site
				{
					OFFSET 0.204105 -0.089430 -0.008415 
				}
			}
		}
	}
}
MOTION
Frames: 11
Frame Time: 0.02
0.00123 0.00591 0.00116 -176.31622 -26.73945 1.68615 42.29657 -1.78265 -7.33154 -13.02836 4.32913 -1.11096 -19.68048 -3.15473 -14.28173 22.79227 138.97773 19.23367 9.58054 -18.01471 6.96752 -2.26414 24.96191 -133.21396 24.00611 -6.91712 26.35306 -1.79322 -4.93083 -19.92261 -6.81143 -3.87934 -4.12935 31.44798 4.69333 7.40218 -24.13257 -6.46508 1.98026 3.15674
0.00107 0.00532 0.00101 -176.33461 -26.74409 1.68596 42.30379 -1.78456 -7.32842 -13.03207 4.33315 -1.11078 -19.6887 -3.21874 -13.95795 22.8024 137.09658 18.82369 9.19368 -18.00494 6.9817 -2.27608 24.95726 -133.21159 24.00967 -6.91469 26.37114 -1.87221 -5.39064 -19.96476 -6.77608 -3.84163 -4.10819 31.46979 4.6971 7.35498 -24.17025 -6.46418 1.97888 3.16001
0.00091 0.00474 0.00085 -176.35305 -26.74874 1.68573 42.311 -1.78647 -7.3253 -13.03578 4.3372 -1.11061 -19.69689 -3.28274 -13.63414 22.81251 135.21494 18.41327 8.80697 -17.99527 6.99595 -2.28818 24.95278 -133.20697 24.01277 -6.91176 26.38921 -1.95098 -5.84935 -20.00684 -6.7408 -3.80399 -4.08708 31.49156 4.70091 7.30791 -24.20787 -6.46328 1.97751 3.16328
0.00075 0.00416 0.00069 -176.3714 -26.75337 1.68553 42.3182 -1.78839 -7.32219 -13.03948 4.34122 -1.11043 -19.70508 -3.34658 -13.31116 22.82261 133.33836 18.00422 8.4211 -17.98555 7.0101 -2.30011 24.94817 -133.20417 24.01622 -6.90924 26.40725 -2.02973 -6.3078 -20.04887 -6.70555 -3.76639 -4.06599 31.5133 4.70468 7.26085 -24.24544 -6.46239 1.97614 3.16654
0.00059 0.00357 0.00054 -176.38967 -26.75797 1.68537 42.3254 -1.7903 -7.31908 -13.04318 4.3452 -1.11025 -19.71332 -3.41036 -12.98866 22.83274 131.46517 17.59642 8.03556 -17.97568 7.02415 -2.31179 24.94334 -133.20464 24.02034 -6.90745 26.42527 -2.10868 -6.76722 -20.09095 -6.67024 -3.72872 -4.04486 31.53506 4.7084 7.21367 -24.28306 -6.46149 1.97474 3.1698
0.00043 0.00299 0.00038 -176.40847 -26.76274 1.68499 42.33265 -1.79221 -7.31593 -13.04687 4.34937 -1.11007 -19.7214 -3.47481 -12.66218 22.84282 129.56624 17.18061 7.6465 -17.96642 7.0388 -2.32476 24.9396 -133.18946 24.02133 -6.90218 26.44344 -2.18706 -7.22437 -20.13302 -6.63505 -3.69117 -4.02379 31.55686 4.71239 7.16686 -24.3207 -6.46058 1.97345 3.17308
0.00027 0.0024 0.00023 -176.42617 -26.76717 1.68507 42.33979 -1.79413 -7.31288 -13.05059 4.35317 -1.10989 -19.72979 -3.53787 -12.34385 22.85297 127.71972 16.78094 7.26471 -17.95598 7.05225 -2.33516 24.93366 -133.20522 24.0285 -6.90378 26.4613 -2.26651 -7.68561 -20.17505 -6.59964 -3.65342 -4.00262 31.57856 4.71584 7.11933 -24.35822 -6.4597 1.97194 3.17632
0.00011 0.00182 7e-05 -176.44489 -26.7719 1.68472 42.347 -1.79602 -7.30974 -13.05429 4.3573 -1.10971 -19.73789 -3.60215 -12.0184 22.86306 125.82757 16.36716 6.87665 -17.9466 7.06677 -2.34788 24.92975 -133.19352 24.03018 -6.89927 26.47944 -2.34498 -8.14305 -20.21715 -6.56444 -3.61586 -3.98155 31.60035 4.71978 7.07248 -24.39589 -6.45879 1.97063 3.17959
-5e-05 0.00125 -8e-05 -176.46486 -26.77705 1.68386 42.35444 -1.79795 -7.30646 -13.05793 4.36187 -1.10955 -19.74562 -3.66821 -11.68236 22.87306 123.86703 15.93259 6.47884 -17.93863 7.08275 -2.36368 24.92836 -133.14358 24.02422 -6.88631 26.49797 -2.42224 -8.59622 -20.25925 -6.52948 -3.57851 -3.96058 31.62226 4.72438 7.0264 -24.43365 -6.45785 1.96957 3.18291
-0.00021 0.00062 -0.00025 -176.47764 -26.77993 1.68598 42.36101 -1.7999 -7.30388 -13.06182 4.36401 -1.10931 -19.75545 -3.72491 -11.40154 22.88352 122.26185 15.60696 6.13083 -17.92287 7.09078 -2.36247 24.91261 -133.29956 24.05943 -6.919 26.51436 -2.50645 -9.07511 -20.30109 -6.49306 -3.53985 -3.93894 31.64352 4.72534 6.9757 -24.47059 -6.45709 1.96712 3.186
-0.00036 0.00011 -0.00038 -176.5056 -26.78749 1.68176 42.36909 -1.80164 -7.2999 -13.06522 4.37122 -1.10924 -19.76089 -3.80079 -11.00803 22.89307 119.93213 15.05855 5.68192 -17.92334 7.11527 -2.39666 24.92704 -133.03032 24.00962 -6.85734 26.53522 -2.57599 -9.49893 -20.34363 -6.45978 -3.50402 -3.91878 31.66613 4.73387 6.93486 -24.50944 -6.45596 1.96757 3.18955
